<?xml version="1.0" encoding="UTF-8"?>
<!-- Generator: Adobe Illustrator 17.0.0, SVG Export Plug-In . SVG Version: 6.00 Build 0)  -->
<!DOCTYPE svg PUBLIC "-//W3C//DTD SVG 1.1//EN" "http://www.w3.org/Graphics/SVG/1.1/DTD/svg11.dtd">
<svg version="1.1" id="图层_1" xmlns="http://www.w3.org/2000/svg" xmlns:xlink="http://www.w3.org/1999/xlink" x="0px" y="0px" width="790.072px" height="176.672px" viewBox="0 0 790.072 176.672" enable-background="new 0 0 790.072 176.672" xml:space="preserve">
<path fill="#21B185" d="M145.117,176.672H34.819C17.538,176.672,4,162.853,4,145.211V34.46C4,16.819,17.538,3,34.819,3h110.297  c17.723,0,32.141,14.113,32.141,31.46v110.751C177.257,162.559,162.839,176.672,145.117,176.672z"/>
<g>
	<g>
		<path fill="#EED46D" d="M115.591,51.782c0.186,0.668,0.452,1.221,0.8,1.659c0.347,0.438,0.742,0.77,1.183,0.997    s0.906,0.357,1.396,0.391c0.489,0.034,0.97-0.014,1.442-0.144c0.388-0.107,0.762-0.255,1.121-0.444    c0.36-0.189,0.697-0.397,1.012-0.624c0.316-0.227,0.604-0.458,0.866-0.693s0.495-0.453,0.698-0.656    c0.08-0.078,0.203-0.204,0.369-0.38c0.166-0.175,0.342-0.363,0.528-0.567c0.186-0.203,0.371-0.403,0.553-0.599    c0.183-0.196,0.325-0.354,0.427-0.472c0.117,0.136,0.208,0.288,0.271,0.456c0.063,0.168,0.12,0.332,0.17,0.493    c0.05,0.16,0.103,0.309,0.158,0.445s0.139,0.248,0.254,0.334c0.114,0.086,0.264,0.138,0.449,0.155    c0.185,0.016,0.43-0.017,0.734-0.101c0.262-0.072,0.473-0.155,0.633-0.25c0.16-0.095,0.283-0.213,0.368-0.354    c0.084-0.142,0.137-0.307,0.158-0.499c0.02-0.191,0.027-0.42,0.021-0.688c-0.024-0.612-0.116-1.21-0.279-1.794    c-0.13-0.47-0.265-1.037-0.405-1.7c-0.139-0.663-0.265-1.34-0.377-2.028s-0.21-1.344-0.293-1.967    c-0.083-0.623-0.126-1.126-0.13-1.506l-0.333-13.442c-0.084-0.303-0.199-0.535-0.346-0.697s-0.314-0.276-0.501-0.342    c-0.188-0.066-0.387-0.089-0.596-0.071c-0.209,0.018-0.419,0.057-0.629,0.114c-0.294,0.081-0.519,0.244-0.677,0.49    c-0.158,0.245-0.255,0.525-0.292,0.839c0.131,3.031,0.191,5.408,0.179,7.13c-0.013,1.722-0.02,2.781-0.024,3.174    c-0.271-0.037-0.547-0.048-0.831-0.032c-0.283,0.016-0.598,0.072-0.944,0.167c-0.472,0.13-0.934,0.327-1.385,0.592    s-0.888,0.573-1.31,0.925c-0.421,0.352-0.824,0.741-1.208,1.167s-0.74,0.864-1.066,1.313c-0.486,0.65-0.886,1.303-1.201,1.957    c-0.315,0.654-0.563,1.304-0.745,1.949c-0.182,0.646-0.307,1.282-0.376,1.907c-0.069,0.626-0.093,1.239-0.073,1.84    c0.007,0.312,0.031,0.59,0.07,0.832C115.472,51.301,115.524,51.542,115.591,51.782z M118.269,47.404    c0.171-0.642,0.41-1.256,0.716-1.84c0.306-0.585,0.661-1.134,1.065-1.651c0.404-0.516,0.835-0.977,1.292-1.383    s0.918-0.75,1.382-1.029c0.464-0.28,0.906-0.477,1.326-0.593c0.178-0.049,0.32-0.057,0.425-0.024s0.193,0.073,0.262,0.122    c0.064,0.432,0.117,0.827,0.16,1.186c0.043,0.359,0.08,0.711,0.108,1.057c0.029,0.347,0.051,0.702,0.068,1.068    s0.031,0.772,0.042,1.218c0.005,0.504-0.045,0.965-0.149,1.382c-0.105,0.416-0.253,0.808-0.444,1.175    c-0.192,0.367-0.423,0.723-0.694,1.067s-0.57,0.702-0.896,1.072c-0.121,0.135-0.266,0.29-0.438,0.467    c-0.171,0.176-0.36,0.352-0.565,0.526c-0.205,0.175-0.419,0.332-0.639,0.471c-0.221,0.14-0.437,0.238-0.646,0.296    c-0.378,0.104-0.701,0.129-0.97,0.073c-0.27-0.055-0.503-0.162-0.699-0.321s-0.358-0.365-0.484-0.617    c-0.127-0.252-0.232-0.529-0.316-0.832c-0.081-0.292-0.124-0.606-0.127-0.942C118.025,48.696,118.098,48.047,118.269,47.404z     M102.234,46.442c0.026,0.094,0.05,0.18,0.072,0.258c0.022,0.078,0.052,0.168,0.092,0.27c0.074,0.754,0.142,1.59,0.205,2.505    c0.063,0.916,0.124,1.848,0.185,2.797c0.061,0.95,0.124,1.887,0.189,2.813c0.066,0.926,0.132,1.773,0.199,2.541    c-0.001,0.203,0.024,0.393,0.073,0.57c0.107,0.386,0.311,0.693,0.611,0.919s0.67,0.279,1.111,0.158    c0.283-0.078,0.517-0.201,0.701-0.37c0.185-0.169,0.313-0.347,0.385-0.536c0.035-0.28,0.018-0.583-0.051-0.913    c-0.069-0.329-0.146-0.65-0.234-0.964l-0.109-0.391c-0.039-1.113-0.062-2.182-0.07-3.208c-0.009-1.026-0.025-1.99-0.051-2.893    c0.163-0.427,0.36-0.911,0.588-1.451s0.498-1.064,0.808-1.57c0.311-0.507,0.67-0.962,1.077-1.367    c0.407-0.404,0.878-0.68,1.413-0.827c0.052-0.015,0.111-0.028,0.175-0.04c0.065-0.012,0.124-0.02,0.18-0.024    c0.04,0.023,0.103,0.076,0.188,0.159c0.085,0.084,0.178,0.173,0.278,0.269s0.206,0.191,0.316,0.284s0.211,0.161,0.302,0.203    c0.208,0.1,0.453,0.159,0.735,0.177c0.281,0.018,0.511,0.003,0.69-0.047c0.178-0.049,0.327-0.143,0.446-0.283    c0.119-0.139,0.213-0.3,0.281-0.482s0.108-0.373,0.12-0.573s-0.004-0.378-0.047-0.535c-0.113-0.407-0.342-0.773-0.686-1.1    c-0.345-0.326-0.727-0.572-1.146-0.738c-0.253-0.099-0.505-0.161-0.755-0.188c-0.25-0.026-0.487-0.037-0.711-0.032    c-0.193-0.003-0.38,0.004-0.562,0.02c-0.181,0.017-0.362,0.049-0.54,0.098c-0.451,0.124-0.86,0.327-1.228,0.608    c-0.368,0.281-0.703,0.601-1.004,0.959c-0.301,0.358-0.573,0.742-0.814,1.151c-0.242,0.409-0.468,0.806-0.677,1.189    c-0.029-0.104-0.063-0.246-0.102-0.427c-0.039-0.18-0.079-0.344-0.119-0.49c-0.075-0.271-0.165-0.531-0.267-0.778    c-0.103-0.247-0.234-0.455-0.394-0.624c-0.16-0.17-0.349-0.289-0.565-0.358s-0.478-0.063-0.781,0.021    c-0.314,0.086-0.523,0.22-0.625,0.4c-0.103,0.18-0.156,0.484-0.162,0.912c0.002,0.292,0.027,0.605,0.075,0.94    C102.075,45.789,102.144,46.119,102.234,46.442z M55.888,67.189c0.088,0.762,0.227,1.488,0.419,2.176    c0.165,0.595,0.375,1.133,0.627,1.615c0.252,0.481,0.557,0.875,0.913,1.181c0.356,0.307,0.771,0.509,1.245,0.609    c0.473,0.1,1.02,0.065,1.639-0.106c0.535-0.147,1.042-0.435,1.521-0.865c0.479-0.429,0.924-0.928,1.337-1.497    c0.412-0.568,0.785-1.165,1.119-1.791s0.631-1.205,0.889-1.736c0.344-0.713,0.665-1.475,0.964-2.288    c0.299-0.813,0.622-1.733,0.969-2.761c0.34,0.94,0.717,1.839,1.131,2.697c0.414,0.859,0.873,1.597,1.379,2.216    c0.505,0.619,1.06,1.073,1.666,1.362c0.605,0.288,1.27,0.333,1.994,0.134c0.346-0.096,0.684-0.27,1.014-0.524    c0.33-0.254,0.644-0.546,0.942-0.875c0.298-0.329,0.565-0.678,0.801-1.047c0.237-0.368,0.432-0.72,0.588-1.055    c0.456-0.957,0.868-2.065,1.236-3.323c0.366-1.259,0.678-2.577,0.932-3.957c0.254-1.378,0.445-2.774,0.572-4.185    c0.127-1.411,0.172-2.752,0.135-4.022c-0.016-0.625-0.042-1.287-0.077-1.985c-0.036-0.698-0.083-1.384-0.141-2.059    s-0.129-1.316-0.213-1.922s-0.187-1.128-0.309-1.566c-0.165-0.595-0.367-0.997-0.606-1.207c-0.239-0.209-0.594-0.249-1.067-0.119    c-0.188,0.052-0.356,0.157-0.504,0.316c-0.148,0.158-0.274,0.345-0.378,0.559s-0.18,0.44-0.226,0.677    c-0.047,0.238-0.07,0.463-0.066,0.676c0.007,0.593,0.034,1.167,0.081,1.722c0.047,0.554,0.101,1.105,0.162,1.649    c0.061,0.545,0.122,1.09,0.183,1.635s0.111,1.11,0.149,1.695c0.037,0.619,0.051,1.309,0.042,2.07s-0.042,1.557-0.098,2.387    c-0.057,0.831-0.138,1.675-0.243,2.536c-0.106,0.861-0.234,1.699-0.385,2.516c-0.152,0.817-0.326,1.59-0.524,2.318    c-0.198,0.729-0.416,1.376-0.654,1.941s-0.501,1.031-0.789,1.396c-0.288,0.366-0.594,0.594-0.919,0.683    c-0.21,0.058-0.421,0.018-0.635-0.12c-0.213-0.138-0.421-0.336-0.623-0.595s-0.396-0.551-0.583-0.877    c-0.186-0.325-0.353-0.65-0.5-0.975c-0.147-0.324-0.273-0.624-0.377-0.899c-0.104-0.275-0.177-0.485-0.217-0.631    c-0.104-0.375-0.2-0.748-0.285-1.118c-0.086-0.37-0.158-0.752-0.217-1.146c-0.058-0.394-0.106-0.819-0.143-1.275    c-0.037-0.456-0.059-0.964-0.068-1.523c-0.007-0.391,0.008-0.814,0.045-1.268c0.037-0.454,0.072-0.95,0.104-1.487l0.042-0.703    c0.01-0.126,0.014-0.234,0.012-0.323s-0.016-0.181-0.043-0.275c-0.107-0.386-0.334-0.664-0.68-0.832    c-0.346-0.169-0.724-0.197-1.132-0.084c-0.221,0.061-0.391,0.139-0.511,0.233c-0.12,0.095-0.2,0.255-0.239,0.479    c-0.088,1.227-0.261,2.494-0.519,3.8c-0.258,1.307-0.572,2.596-0.941,3.866c-0.37,1.27-0.776,2.477-1.22,3.622    c-0.444,1.144-0.903,2.164-1.377,3.058c-0.474,0.895-0.942,1.628-1.404,2.199s-0.893,0.911-1.292,1.021    c-0.189,0.052-0.359,0.048-0.511-0.011s-0.288-0.162-0.408-0.309c-0.12-0.147-0.227-0.328-0.321-0.544    c-0.094-0.216-0.175-0.449-0.245-0.699c-0.102-0.365-0.181-0.751-0.237-1.157s-0.098-0.791-0.125-1.154    c-0.028-0.363-0.044-0.676-0.05-0.939c-0.005-0.263-0.008-0.433-0.007-0.513c-0.014-0.985,0.016-1.993,0.091-3.025    c0.075-1.031,0.175-2.082,0.301-3.15s0.26-2.161,0.401-3.279c0.141-1.117,0.271-2.254,0.39-3.411    c-0.018-0.512-0.079-0.955-0.184-1.331c-0.096-0.344-0.223-0.629-0.382-0.855c-0.159-0.226-0.337-0.399-0.534-0.519    c-0.197-0.12-0.408-0.188-0.633-0.205c-0.224-0.017-0.453,0.007-0.683,0.07c-0.252,0.069-0.465,0.207-0.639,0.412    c-0.175,0.206-0.287,0.461-0.337,0.767c0.02,0.275,0.035,0.535,0.047,0.779c0.011,0.244,0.018,0.512,0.02,0.803    c0.024,1.184-0.008,2.387-0.098,3.608s-0.189,2.426-0.299,3.614c-0.111,1.187-0.208,2.349-0.293,3.484    c-0.085,1.136-0.111,2.211-0.078,3.224C55.744,65.656,55.8,66.427,55.888,67.189z M85.87,61.935    c0.348,0.5,0.773,0.894,1.277,1.182c0.503,0.289,1.081,0.458,1.733,0.509s1.382-0.035,2.19-0.257    c0.849-0.234,1.586-0.557,2.211-0.971c0.624-0.414,1.164-0.902,1.617-1.465c0.673-0.826,1.25-1.706,1.729-2.641    c0.48-0.936,0.847-1.877,1.103-2.823c0.256-0.947,0.396-1.884,0.421-2.812c0.025-0.928-0.078-1.805-0.307-2.629    c-0.099-0.355-0.209-0.667-0.329-0.938c-0.12-0.27-0.249-0.518-0.385-0.745c-0.136-0.226-0.285-0.435-0.445-0.627    c-0.16-0.191-0.33-0.386-0.509-0.585c-0.565-0.608-1.185-1.041-1.86-1.299c-0.676-0.258-1.423-0.275-2.241-0.049    c-0.692,0.191-1.182,0.562-1.469,1.113c-0.34,0.116-0.658,0.273-0.952,0.472c-0.294,0.199-0.508,0.368-0.639,0.505    c-0.817,0.877-1.505,1.768-2.059,2.673c-0.556,0.906-1,1.798-1.331,2.676c-0.332,0.878-0.563,1.72-0.695,2.525    c-0.132,0.806-0.188,1.549-0.168,2.229c0.02,0.803,0.121,1.534,0.304,2.192C85.254,60.847,85.522,61.435,85.87,61.935z     M87.528,56.322c0.079-0.426,0.187-0.869,0.325-1.328c0.137-0.459,0.309-0.919,0.514-1.38c0.204-0.461,0.432-0.9,0.683-1.318    s0.521-0.795,0.811-1.133c0.29-0.339,0.592-0.613,0.906-0.823c0.509-0.197,0.917-0.376,1.222-0.539    c0.304-0.163,0.539-0.314,0.703-0.455c0.164-0.14,0.278-0.279,0.342-0.414c0.063-0.135,0.117-0.288,0.161-0.457    c0.125,0.168,0.262,0.335,0.411,0.503c0.148,0.167,0.294,0.326,0.437,0.478c0.239,0.249,0.44,0.477,0.605,0.684    c0.165,0.208,0.286,0.447,0.361,0.718s0.124,0.578,0.146,0.921c0.021,0.342,0.036,0.709,0.043,1.1    c0.016,0.626-0.06,1.334-0.23,2.128c-0.168,0.794-0.436,1.567-0.803,2.319c-0.367,0.753-0.838,1.424-1.413,2.015    c-0.575,0.591-1.262,0.996-2.059,1.216c-0.43,0.119-0.811,0.158-1.143,0.121c-0.332-0.038-0.628-0.136-0.886-0.296    c-0.259-0.159-0.475-0.375-0.646-0.648c-0.172-0.273-0.306-0.581-0.401-0.926c-0.055-0.198-0.099-0.408-0.133-0.629    c-0.033-0.221-0.052-0.46-0.055-0.718C87.415,57.128,87.448,56.748,87.528,56.322z M127.371,63.951    c-7.886,1.597-78.12,17.11-72.81,22.95c3.079,3.386,65.488-19.132,82.775-23.521C154.625,58.991,135.258,62.355,127.371,63.951z"/>
	</g>
</g>
<g>
	<g>
		<path fill="#FFFFFF" d="M30.733,111.161c6.837-1.392,52.774,10.112,59.3,20.393c0-0.087,0.002-0.398,0.004-0.826    c0.002,0.428,0.004,0.739,0.004,0.826c6.526-10.282,52.463-21.785,59.3-20.393c2.175,1.392-1.337-12.756-18.49-11.766    c-16.884,0.974-40.087,25.357-40.814,26.125c-0.727-0.768-23.931-25.151-40.814-26.125    C32.069,98.405,28.558,112.552,30.733,111.161z M162.5,119.572c-23.724-16.176-70.673,14.151-72.464,15.611    c-1.791-1.46-48.74-31.788-72.464-15.611c0,0.232,0.492,13.683,0.414,13.605c-0.078-0.077,27.849-7.688,72.003,9.86    c0,0.018,0,0.027,0,0.035c0.015-0.006,0.03-0.011,0.046-0.018c0.016,0.006,0.03,0.011,0.046,0.018c0-0.008,0-0.017,0-0.035    c44.154-17.549,72.081-9.937,72.004-9.86C162.008,133.255,162.5,119.804,162.5,119.572z M90.083,143.073L90.083,143.073    C90.083,143.086,90.083,143.09,90.083,143.073z M89.991,143.073L89.991,143.073C89.991,143.09,89.991,143.086,89.991,143.073z"/>
	</g>
</g>
<g>
	<path fill="#FFFFFF" d="M254.682,92.976c-2.335,0-4.281-1.946-4.281-4.281v-0.259c0-2.205,1.946-4.281,4.281-4.281h19.069V82.21   V52.636h-15.826c-1.427,0-2.594-0.519-3.502-1.686c-0.778-1.167-1.038-2.594-0.519-3.891l4.021-12.323   c0.778-2.205,3.243-3.373,5.448-2.724l0.259,0.13c2.205,0.778,3.373,3.243,2.594,5.448l-2.205,6.356h34.764   c2.335,0,4.281,1.946,4.281,4.281v0.13c0,2.465-1.946,4.281-4.281,4.281h-16.214l-0.13,29.574v1.946h18.031   c2.335,0,4.281,2.075,4.281,4.281v0.259c0,2.335-1.946,4.281-4.281,4.281h-14.917l18.808,42.806c1.038,2.075,0,4.67-2.075,5.708   h-0.259c-2.335,0.908-4.799,0-5.707-2.205l-15.826-36.191c-0.649,3.762-1.686,7.394-2.983,11.026   c-1.946,5.578-4.67,11.155-7.912,16.733c-2.724,4.54-6.226,9.08-10.247,13.62c-0.908,0.908-1.816,1.427-2.983,1.427   c-1.167,0-2.205-0.389-3.113-1.297l-0.259-0.13c-1.686-1.427-1.686-4.151-0.259-5.837c3.762-4.151,6.875-8.302,9.21-12.452   c3.113-5.059,5.578-9.988,7.264-15.176c1.816-4.929,2.983-9.858,3.502-14.658c0.13-1.038,0.259-2.205,0.389-3.373L254.682,92.976   L254.682,92.976z M330.696,142.398c-6.615,0-12.323-3.632-14.917-9.728c-0.778-2.075-1.297-4.151-1.297-6.486v-72.9   c0-2.075,0.519-4.281,1.297-6.356c2.594-5.967,8.302-9.728,14.917-9.728h19.977c6.745,0,12.323,3.762,14.917,9.728   c0.908,2.075,1.297,4.281,1.297,6.356v72.9c0,2.335-0.389,4.41-1.297,6.486c-2.594,6.096-8.173,9.728-14.917,9.728H330.696z    M350.672,133.577c2.205,0,3.891-0.649,5.318-2.075s2.205-3.243,2.205-5.319v-72.9c0-1.946-0.778-3.632-2.205-5.059   c-1.427-1.427-3.113-2.205-5.318-2.205h-19.977c-1.946,0-3.762,0.778-5.318,2.205c-1.427,1.427-2.075,3.113-2.075,5.059v72.9   c0,2.076,0.649,3.891,2.075,5.319c1.557,1.427,3.373,2.075,5.318,2.075H350.672L350.672,133.577z"/>
	<path fill="#FFFFFF" d="M441.859,142.658c0,2.205-1.816,4.281-4.281,4.281h-0.13c-2.335,0-4.281-2.075-4.281-4.281V84.934h-6.226   c0,0.519-0.13,0.908-0.259,1.297c-8.82,21.792-20.624,39.304-38.136,54.351c-0.778,0.778-1.946,1.167-3.243,1.038   c-1.167-0.13-2.075-0.649-2.854-1.686l-0.259-0.13c-1.427-1.816-1.167-4.41,0.649-5.837c15.695-13.62,26.722-29.446,34.764-49.032   h-32.299c-2.335,0-4.281-1.946-4.281-4.281v-0.13c0-2.465,1.946-4.281,4.281-4.281h47.865V33.956c0-2.335,1.946-4.281,4.281-4.281   h0.13c2.465,0,4.281,1.946,4.281,4.281v42.287h47.865c2.335,0,4.151,1.816,4.151,4.281v0.13c0,2.335-1.816,4.281-4.151,4.281   h-30.872l35.023,50.33c1.427,1.816,0.908,4.67-1.038,5.967l-0.259,0.13c-1.816,1.297-4.41,0.778-5.837-1.167l-37.23-53.573   c-0.388-0.519-0.649-1.038-0.778-1.686h-6.874v57.722H441.859z M419.159,62.104c1.427,1.816,1.167,4.54-0.778,5.837l-0.259,0.259   c-1.945,1.427-4.67,1.038-6.096-0.908l-19.977-27.759c-1.427-1.946-1.038-4.54,0.908-5.967l0.259-0.13   c1.816-1.427,4.54-1.038,5.967,0.908L419.159,62.104z M483.887,39.404c-5.837,10.507-12.713,19.846-20.885,28.667   c-0.778,0.908-1.816,1.297-2.983,1.297c-1.298,0-2.335-0.259-3.113-1.167l-0.13-0.13c-1.686-1.686-1.686-4.281-0.13-5.967   c3.632-3.891,7.134-8.042,10.377-12.452c3.244-4.54,6.357-9.21,9.08-14.398c1.167-2.205,3.632-2.854,5.837-1.816l0.259,0.13   C484.276,34.604,485.055,37.199,483.887,39.404z"/>
	<path fill="#FFFFFF" d="M541.348,55.229c0,2.335-1.816,4.281-4.281,4.281h-0.13c-2.335,0-4.28-1.946-4.28-4.281v-6.486H512.94   c-2.205,0-4.151-1.816-4.151-4.281v-0.13c0-2.335,1.946-4.281,4.151-4.281h19.717v-6.356c0-2.335,1.945-4.281,4.28-4.281h0.13   c2.465,0,4.281,1.946,4.281,4.281v6.356h51.627v-6.356c0-2.335,1.816-4.281,4.281-4.281h0.259c2.336,0,4.281,1.946,4.281,4.281   v6.356h19.587c2.335,0,4.281,1.946,4.281,4.281v0.13c0,2.465-1.946,4.281-4.281,4.281h-19.587v6.486   c0,2.335-1.945,4.281-4.281,4.281h-0.259c-2.465,0-4.281-1.946-4.281-4.281v-6.486h-51.627V55.229z M521.501,82.08   c0-3.762,1.427-7.134,4.021-9.728c2.724-2.594,6.097-4.151,9.858-4.151h28.278c0-2.335,0-4.799,0.13-7.394   c0.13-2.335,2.076-4.151,4.281-4.151h0.259c2.465,0,4.28,1.816,4.28,4.41c-0.129,2.465-0.129,4.799-0.259,7.134h26.722   c3.762,0,7.005,1.557,9.728,4.151c2.594,2.594,4.151,5.967,4.151,9.728v20.105h7.004c2.336,0,4.281,1.816,4.281,4.281v0.13   c0,2.335-1.945,4.281-4.281,4.281h-41.12l41.639,26.203c2.075,1.167,2.594,3.762,1.297,5.837l-0.13,0.13   c-1.167,1.946-3.762,2.594-5.707,1.297l-50.848-31.78c-0.52-0.259-0.908-0.649-1.167-1.038c-0.389,0.649-0.649,1.167-0.908,1.686   c-5.967,10.377-15.565,17.901-26.981,23.738c-5.319,2.724-11.805,5.318-19.069,7.912c-1.038,0.389-2.206,0.259-3.244-0.259   c-1.037-0.519-1.815-1.297-2.205-2.594v-0.13c-0.649-2.205,0.519-4.54,2.724-5.318c11.544-4.151,23.089-9.34,31.391-16.863   c2.983-2.724,5.578-5.578,7.784-8.82h-39.045c-2.206,0-4.281-1.946-4.281-4.281v-0.13c0-2.465,2.075-4.281,4.281-4.281h7.134V82.08   H521.501z M560.806,93.884c1.167-5.059,2.075-10.766,2.465-16.992h-27.89c-1.427,0-2.723,0.519-3.631,1.427   c-1.038,1.167-1.557,2.335-1.557,3.762v20.105h27.889C559.12,99.592,560.028,96.868,560.806,93.884z M571.961,78.967   c-0.519,6.745-1.427,13.102-2.723,18.679c-0.389,1.557-0.908,3.113-1.298,4.54h36.191V82.081c0-1.427-0.519-2.594-1.427-3.762   c-0.908-0.908-2.205-1.427-3.631-1.427h-26.981C571.961,77.67,571.961,78.319,571.961,78.967z"/>
	<path fill="#FFFFFF" d="M647.842,63.012c1.816,0,3.632,0.389,5.319,1.167c5.059,2.205,8.561,7.004,8.561,12.583v56.945   c0,2.983,2.076,5.059,5.059,5.059h2.984c2.335,0,4.281,1.946,4.281,4.281v0.259c0,2.335-1.946,4.281-4.281,4.281h-2.984   c-7.523,0-13.75-6.226-13.75-13.88V76.762c0-1.427-0.649-2.724-1.557-3.632s-2.076-1.427-3.632-1.427h-4.799   c-2.205,0-4.281-1.946-4.281-4.281v-0.259c0-2.205,2.076-4.151,4.281-4.151H647.842L647.842,63.012z M659.646,49.132   c0,2.335-1.816,4.281-4.281,4.281h-0.259c-2.335,0-4.281-1.946-4.281-4.281V34.474c0-2.205,1.946-4.281,4.281-4.281h0.259   c2.464,0,4.281,2.075,4.281,4.281V49.132z M748.112,30.842c2.335,0,4.281,1.946,4.281,4.281v0.13c0,2.335-1.946,4.281-4.281,4.281   H712.7v0.519l-2.205,14.139h23.348c3.632,0,7.135,1.427,9.729,4.021s4.151,5.967,4.151,9.858v16.994h2.983   c2.206,0,4.151,1.816,4.151,4.281v0.13c0,2.335-1.945,4.281-4.151,4.281h-70.565c-2.335,0-4.281-1.946-4.281-4.281v-0.13   c0-2.465,1.946-4.281,4.281-4.281h16.734c0-0.13,0-0.389,0.13-0.649l3.243-21.403h-13.879c-2.206,0-4.281-1.946-4.281-4.281v-0.259   c0-2.465,2.075-4.281,4.281-4.281h15.176l2.206-14.658h-21.144c-2.335,0-4.281-1.946-4.281-4.281v-0.13   c0-2.335,1.946-4.281,4.281-4.281L748.112,30.842L748.112,30.842z M695.318,147.327c-3.632,0-7.134-1.557-9.728-4.151   c-2.594-2.594-4.151-6.097-4.151-9.728V114.25c0-3.762,1.557-7.264,4.151-9.858s6.097-4.021,9.728-4.021h42.287   c3.762,0,7.264,1.427,9.858,4.021c2.594,2.594,4.021,6.096,4.021,9.858v19.198c0,3.632-1.427,7.134-4.021,9.728   s-6.097,4.151-9.858,4.151H695.318z M737.605,138.507c1.557,0,2.724-0.519,3.762-1.427s1.428-2.205,1.428-3.632V114.25   c0-1.557-0.389-2.724-1.428-3.632c-1.037-1.167-2.205-1.557-3.762-1.557h-42.287c-1.427,0-2.724,0.389-3.632,1.557   c-1.037,0.908-1.427,2.075-1.427,3.632v19.198c0,1.427,0.389,2.724,1.427,3.632c0.908,0.908,2.206,1.427,3.632,1.427H737.605z    M738.902,68.071c0-1.557-0.388-2.724-1.427-3.762c-1.038-0.908-2.205-1.297-3.632-1.297h-24.645l-3.243,22.052h32.948   L738.902,68.071L738.902,68.071z"/>
</g>
</svg>